<?xml version="1.0" encoding="UTF-8" standalone="no"?>
<!-- Created with Inkscape (http://www.inkscape.org/) -->

<svg
   version="1.1"
   id="svg2"
   width="4666.9868"
   height="3333.3467"
   viewBox="0 0 4666.9868 3333.3467"
   sodipodi:docname="bg.svg"
   inkscape:version="1.3 (0e150ed6c4, 2023-07-21)"
   xmlns:inkscape="http://www.inkscape.org/namespaces/inkscape"
   xmlns:sodipodi="http://sodipodi.sourceforge.net/DTD/sodipodi-0.dtd"
   xmlns="http://www.w3.org/2000/svg"
   xmlns:svg="http://www.w3.org/2000/svg">
  <defs
     id="defs6">
    <clipPath
       clipPathUnits="userSpaceOnUse"
       id="clipPath692">
      <path
         d="m 13970.4,2901.3 c 40,0.3 79.9,1 119.8,2.3 87.1,2.8 174,9.4 260.6,19.5 1.7,0.2 12.9,1.8 20.1,2.8 19.7,3 39.4,6.1 59,9.6 47.2,8.2 94.1,17.7 140.7,28.7 315.3,74.3 574.4,203.3 789.8,448 56.9,64.6 120.5,157.7 176.8,262.9 0.3,0.1 0.6,0.2 0.9,0.4 v 0 0 c -53.7,-100.4 -114.1,-189.9 -169,-254 -2.7,-3.2 -5.4,-6.3 -8,-9.3 -215.4,-244.7 -474.5,-373.7 -789.7,-448 -46.7,-11 -93.6,-20.5 -140.8,-28.7 -19.6,-3.5 -39.3,-6.6 -59,-9.6 v 0 c -7.2,-1 -18.4,-2.6 -20.1,-2.8 v 0 c -86.6,-10.2 -173.5,-16.7 -260.6,-19.5 -2.5,-0.1 -4.9,-0.1 -7.4,-0.2 -37.7,-1.2 -75.4,-1.9 -113.1,-2.1 m -435.5,559.7 c -37.3,0 -74.7,0.6 -112,1.7 51.1,50.3 99.9,102.9 146.2,156.6 5.5,6.4 11,12.8 16.5,19.3 85.1,100.3 162.9,205.9 233.6,315.5 228.1,-146 477.7,-254 742.2,-313.1 -323,-130.7 -674.9,-180 -1026.5,-180 m 1480,128.8 c -75.6,0 -151,4.5 -225.1,12.8 -37.1,4.2 -73.8,9.3 -110.3,15.4 36.7,-6.1 73.7,-11.2 111,-15.4 1.2,-0.1 2.4,-0.2 3.6,-0.4 72.9,-8 147,-12.4 221.2,-12.4 -0.1,0 -0.3,0 -0.4,0"
         id="path690-2" />
    </clipPath>
    <radialGradient
       fx="0"
       fy="0"
       cx="0"
       cy="0"
       r="1"
       gradientUnits="userSpaceOnUse"
       gradientTransform="matrix(14990.8,0,0,-14985.9,14981.7,15005)"
       spreadMethod="pad"
       id="radialGradient700">
      <stop
         style="stop-opacity:1;stop-color:#98533b"
         offset="0"
         id="stop694" />
      <stop
         style="stop-opacity:1;stop-color:#95523b"
         offset="0.596774"
         id="stop696" />
      <stop
         style="stop-opacity:1;stop-color:#4b3b35"
         offset="1"
         id="stop698" />
    </radialGradient>
    <clipPath
       clipPathUnits="userSpaceOnUse"
       id="clipPath710">
      <path
         d="m 13367.2,4463 c -0.1,0 -0.2,0 -0.3,0 -0.1,0 -0.1,0 -0.1,0 71.1,0 138.5,6.1 191,25.5 82.7,30.6 141.1,116.3 183.4,222.2 -271.2,76 -538.1,168.1 -798.9,281.5 -1816.1,768.9 -3760.4,768.9 -5704.72,1046.6 -524.68,69.3 -943.72,445.8 -1172.4,925.6 23.99,382.1 116.87,756.7 296.19,1097.5 35.12,17.1 70.79,33.4 107.03,48.7 299.13,128.2 576.89,256.3 876.01,363.1 414.46,127 822.44,178.7 1226.96,178.7 888.43,0 1759.43,-249.6 2640.33,-499.1 747.8,-213.6 1495.6,-427.2 2200.7,-704.8 32.8,-12.8 65.3,-25.7 97.9,-38.6 -169.7,366.8 -376.4,721.1 -619.7,1043.9 -53.2,70.6 -252.2,123.9 -333.4,160.8 -113.8,51.8 -227.9,103.9 -344.2,149.5 -253.7,99.5 -511.8,188.6 -772.1,269.2 -407.2,126 -821.2,229.6 -1239.7,310.1 -117,22.5 -234.27,43.2 -351.85,62.1 -321.35,51.6 -648.92,89.4 -974.2,89.4 0.04,0 0.12,0 0.16,0 0.08,0 0.15,0 0.22,0 0.07,0 0.18,0 0.25,0 323.47,0 649.23,-37.3 968.86,-88.5 1.79,-0.3 3.62,-0.6 5.41,-0.9 117.59,-18.9 234.85,-39.6 351.85,-62.1 418.5,-80.5 832.5,-184.1 1239.7,-310.1 v 0 c 260.3,-80.6 518.4,-169.7 772.1,-269.2 v 0 c 116.3,-45.6 230.3,-97.7 344.2,-149.5 1.9,-0.9 3.8,-1.7 5.9,-2.6 84.5,-36.8 275.5,-89.2 327.5,-158.2 v 0 0 c 274.5,-364.1 502.5,-768.3 683.2,-1185.5 0.7,-1.6 1.4,-3.3 2.1,-4.9 270.3,-625.6 390,-1326 283.5,-2002.6 v 0 c -31.2,-198.2 -76.5,-689 -301.6,-772.3 v 0 c -1,-0.4 -2,-0.7 -3,-1.1 -0.5,-0.1 -0.9,-0.3 -1.4,-0.5 -51.9,-18.2 -117.6,-23.9 -186.7,-23.9 -0.1,0 -0.2,0 -0.2,0 m -6899.49,525.1 c -0.08,0.2 -0.16,0.4 -0.24,0.6 74.55,91.6 164.06,171.7 261.13,238.2 251.11,171.7 557.05,239.1 857.74,243.5 11.5,0.1 22.99,0.2 34.48,0.2 0.09,0 0.16,0 0.25,0 -11.35,0 -22.68,-0.1 -34.03,-0.2 v 0 c -300.69,-4.4 -606.63,-71.8 -857.74,-243.5 -97.26,-66.6 -186.94,-146.9 -261.59,-238.8"
         id="path708-6" />
    </clipPath>
    <radialGradient
       fx="0"
       fy="0"
       cx="0"
       cy="0"
       r="1"
       gradientUnits="userSpaceOnUse"
       gradientTransform="matrix(14990.8,0,0,-14985.9,14981.7,15005)"
       spreadMethod="pad"
       id="radialGradient718">
      <stop
         style="stop-opacity:1;stop-color:#9f260e"
         offset="0"
         id="stop712" />
      <stop
         style="stop-opacity:1;stop-color:#9c260e"
         offset="0.596774"
         id="stop714" />
      <stop
         style="stop-opacity:1;stop-color:#510e09"
         offset="1"
         id="stop716" />
    </radialGradient>
    <clipPath
       clipPathUnits="userSpaceOnUse"
       id="clipPath728">
      <path
         d="m 15243.1,3838.4 c 33.1,0.2 66.3,0.9 99.6,2.3 101.5,4 199.6,20 290.4,54 l 0.1,0.3 c 26.9,77.7 49.3,156.9 67.9,237 15.5,66.6 28.3,133.8 38.8,201.3 0.5,2.7 5.7,42.2 6.3,44.9 -541.2,48.8 -1080.1,115.2 -1605.8,232.4 7.9,22.3 15.5,44.7 22.8,67.2 156.2,477.7 199.7,992.2 122.4,1494.3 v 0 c -55.3,359.7 -171.1,712.5 -320.3,1047.3 557.3,-247.4 1078.1,-537.1 1562.3,-924.3 21.1,-16.8 42.3,-33.1 63.7,-48.9 v 0 0 c -64.3,262.5 -148.9,520.2 -269.8,755 -26.6,51.8 -54,101.4 -82.4,149.3 -2,1 -4,2 -6,3.2 2.2,-1 4.4,-2.1 6.7,-3.2 28.4,-47.9 55.8,-97.5 82.4,-149.3 161.4,-313.7 258.2,-668.1 328.4,-1020.3 65.2,-326.6 104.8,-628.2 118.2,-967.5 5.5,-139.9 5.2,-280.1 -2.9,-419.9 -0.9,-15.8 -1.9,-31.6 -3,-47.4 v 0 c -3.3,-46.3 -7.4,-92.6 -12.5,-138.7 v 0 c -1.1,-9.6 -2.3,-19.1 -3.4,-28.7 0,0.1 0,0.1 0,0.1 v 0 0 0 c -0.2,0 -5.9,-42.7 -6.4,-45.5 v 0 c -10.3,-66.5 -22.9,-132.6 -38,-198.2 -0.3,-1 -0.5,-2 -0.8,-3.1 -0.2,-1.2 -0.5,-2.5 -0.8,-3.7 -18.5,-78.8 -40.6,-156.8 -67.1,-233.3 l -0.1,-0.3 c -78.8,-29.5 -162.9,-45.4 -250.1,-51.8 -13.4,-0.9 -26.8,-1.7 -40.3,-2.2 v 0 c -33.5,-1.4 -66.9,-2.1 -100.3,-2.3 m -205.7,3591.1 c -0.7,3.2 -1.2,6.1 -1.4,8.7 -28.4,30.6 -56.9,61.1 -85.5,91.6 -101.1,108.1 -203.1,216.3 -309.9,319.2 -357.2,300.4 -793.3,513.1 -1254.9,602.2 -15.2,2.4 -30.4,4.8 -45.6,7.1 -0.9,0.2 -2.4,0.4 -4.3,0.6 -10.2,1.2 -23.7,2.9 -27.3,3.3 -42.9,5 -85.7,9.7 -128.6,14.2 -0.1,0.1 -0.1,0.1 -0.1,0.1 6.7,-0.7 13.5,-1.4 20.2,-2.1 36.4,-3.9 72.8,-7.9 109.2,-12.2 3.1,-0.4 13.7,-1.6 23.1,-2.8 1.4,-0.1 2.8,-0.3 4.2,-0.5 1.9,-0.2 3.4,-0.4 4.3,-0.6 15.2,-2.3 30.4,-4.7 45.6,-7.1 461.6,-89.1 897.7,-301.8 1254.9,-602.2 106.8,-102.9 208.8,-211.1 309.9,-319.2 28.6,-30.5 57.1,-61 85.5,-91.6 0.2,-2.9 0.4,-5.8 0.7,-8.7"
         id="path726-3" />
    </clipPath>
    <radialGradient
       fx="0"
       fy="0"
       cx="0"
       cy="0"
       r="1"
       gradientUnits="userSpaceOnUse"
       gradientTransform="matrix(14990.8,0,0,-14985.9,14981.7,15005)"
       spreadMethod="pad"
       id="radialGradient736">
      <stop
         style="stop-opacity:1;stop-color:#9f260e"
         offset="0"
         id="stop730" />
      <stop
         style="stop-opacity:1;stop-color:#9c260e"
         offset="0.596774"
         id="stop732" />
      <stop
         style="stop-opacity:1;stop-color:#510e09"
         offset="1"
         id="stop734" />
    </radialGradient>
    <clipPath
       clipPathUnits="userSpaceOnUse"
       id="clipPath746">
      <path
         d="m 9680.82,2207.5 c -0.11,0 -0.23,0 -0.34,0 47.3,0 94.55,1.1 141.67,3.1 34.14,1.6 68.25,3.6 102.3,6.5 10.24,0.8 91.45,1.8 96.75,9.7 0.5,0.1 0.8,0.1 0.8,0.1 v 0 c -4.7,-8 -86.56,-9 -96.84,-9.8 -34.06,-2.9 -68.18,-4.9 -102.31,-6.5 -1.66,0 -3.34,-0.1 -5,-0.2 -45.53,-1.9 -91.18,-2.9 -136.87,-2.9 -0.05,0 -0.11,0 -0.16,0 m 304.99,14.2 c -0.38,0 2.92,0.6 12.4,2.1 16.09,2.7 32.29,4.9 48.39,7.6 36.2,6.1 72.3,12.9 108.3,20.6 119.7,25.5 237.5,59.9 351.9,103.5 13.4,5.1 26.6,10.4 39.9,15.7 25.9,11.7 51.6,23.5 77.1,35.9 52.9,26 104.6,54.1 155.2,84.3 18.1,17.7 35.8,35.8 52.9,54.4 8.1,9 41,48.2 42,48.2 v 0 c 37,48.9 69.5,101.7 97.4,156.1 7,13.6 13.7,27.3 20.3,41 0.6,1.2 2,4.1 3.6,7.6 -503.8,97.1 -993.7,264.6 -1481.94,418.3 -277.91,87.5 -552.43,184.6 -829.99,273.1 0.09,0 0.18,0 0.28,0.1 v 0 0 c 275.53,-87.8 548.07,-184.2 823.9,-271.1 2.17,-0.7 4.34,-1.4 6.51,-2.1 488.24,-153.7 978.14,-321.2 1481.94,-418.3 0,-0.1 0,-0.1 0,-0.2 -1.6,-3.4 -3,-6.3 -3.5,-7.4 v 0 0 c -6.7,-13.7 -13.4,-27.4 -20.4,-41 -24,-46.7 -51.4,-92.3 -82,-135.2 -5.1,-7.1 -10.2,-14 -15.4,-20.9 v 0 c -0.3,0 -4.4,-4.6 -9.9,-11 -10.7,-12.3 -26.8,-31.3 -32.1,-37.2 v 0 c -17.1,-18.6 -34.8,-36.7 -52.9,-54.4 -50.6,-30.2 -102.3,-58.3 -155.2,-84.3 -25.5,-12.4 -51.2,-24.2 -77.1,-35.9 v 0 c -13.3,-5.3 -26.5,-10.6 -39.9,-15.7 v 0 c -114.3,-43.6 -232.2,-78 -351.9,-103.5 -36,-7.7 -72.1,-14.5 -108.3,-20.6 -16.1,-2.7 -32.3,-4.9 -48.39,-7.6 v 0 c -6.68,-1.1 -10.29,-1.7 -11.71,-2 -0.78,-0.1 -1.27,-0.1 -1.39,-0.1 m -711.79,10 c -0.8,0 -3.14,0.1 -7.4,0.5 -4.19,0.5 -8.38,0.9 -12.58,1.4 0.15,-0.1 0.3,-0.1 0.44,-0.1 0.92,-0.1 1.8,-0.2 2.64,-0.3 1.25,-0.1 2.43,-0.2 3.54,-0.3 0.05,0 0.11,0 0.16,0 7.51,-0.8 11.72,-1.1 13.38,-1.2 0.02,0 0.04,0 0.07,0 -0.06,0 -0.14,0 -0.25,0 m 2461.48,1025.4 c -0.1,0 -0.2,0 -0.4,0 h -0.1 c 39.8,0 79.7,0.8 119.6,2.4 69.4,2.8 138.2,10 207.3,16.1 1.3,0.1 2.2,0.2 3.3,0.3 20.3,3 40.5,6.2 60.8,9.5 31.8,5.2 63.5,10.7 95.1,16.9 142.1,28.3 275.9,84.2 416.6,114.1 40.7,30 84.5,56.1 125.5,85.5 9.3,6.7 19,13.8 28.8,21.2 -1551.3,210.1 -3010.67,482.2 -4528.84,892.4 -129.11,39.3 -272.9,60.9 -416.35,60.9 -372.67,0 -742.85,-145.6 -845.8,-504.5 -86.35,194.1 -163.74,395.9 -174.38,607.3 -0.68,13.6 -1.02,27.2 -1.01,40.8 0.06,94.9 16.9,187.9 47.49,278.4 10.92,32.3 24.76,61.7 40.99,88.9 v 0 c 0.59,0.4 1.2,0.8 1.79,1.2 203.37,130.7 457.04,173.5 711.33,173.6 0.08,0 0.17,0 0.25,0 0.05,0 0.13,0 0.19,0 191.06,0 382.47,-24.2 553.18,-53.5 v 0 c 628.82,-107.9 1247.37,-268.1 1865.86,-422.9 254.7,-63.7 509.7,-127 765.8,-185.8 2,-0.5 4.1,-1 6.2,-1.4 3.4,-0.8 6.8,-1.6 10.2,-2.4 357.8,-82 717.7,-155.2 1081,-208.8 360.4,-53.3 720.2,-83.1 1080.6,-83.1 18.2,0 36.4,0.1 54.6,0.2 133.3,1.1 266.6,6.4 400.1,16.1 0.8,0.1 1.6,0.1 2.4,0.2 3.2,0.2 6.5,0.4 9.7,0.7 -36.9,-57.9 -75.8,-114.3 -116.2,-169.9 l -12.6,-16.9 c -6.7,-8.4 -13.4,-16.8 -20.2,-25.2 -13.9,-17.2 -28.1,-34.3 -42.5,-51.2 -31,-36.4 -63.1,-72 -96.2,-106.6 -32.6,-34.2 -66.2,-67.4 -100.7,-99.6 -35.2,-32.8 -71.3,-64.6 -108.4,-95.3 -58.1,-47.9 -131.3,-107.6 -192.2,-151.6 -1.5,-1.1 -2.9,-2.1 -4.4,-3.2 -41,-29.4 -84.8,-55.5 -125.5,-85.5 -140.7,-29.9 -274.5,-85.8 -416.6,-114.1 -31.6,-6.2 -63.3,-11.7 -95.1,-16.9 -20.3,-3.3 -40.5,-6.5 -60.8,-9.5 -1.1,-0.1 -2,-0.2 -3.3,-0.3 v 0 c -69.1,-6.1 -137.9,-13.3 -207.3,-16.1 v 0 0 c -1.5,-0.1 -3.1,-0.1 -4.6,-0.2 -2.1,-0.1 -4.2,-0.2 -6.4,-0.2 -36.2,-1.4 -72.4,-2 -108.6,-2 -0.1,0 -0.1,0 -0.2,0 m -3075.05,228.1 c -6.27,0 -13.01,1.1 -20.21,3.4 -334.85,108.2 -625.38,341.3 -775.14,661.8 -14.81,31.6 9.39,64.6 37.9,64.6 0.12,0 0.23,0 0.35,0 -6,0 -11.8,-1.5 -17.08,-4.2 -19.54,-9.8 -31.93,-35.2 -20.72,-59.9 0.08,-0.2 0.16,-0.4 0.24,-0.5 v 0 c 149.78,-320.5 440.3,-553.6 775.15,-661.8 v 0 c 0.65,-0.2 1.3,-0.4 1.95,-0.6 0.03,0 0.06,0 0.1,0 6.32,-1.9 12.28,-2.7 17.87,-2.8 -0.14,0 -0.27,0 -0.41,0 m -543.7,620.3 c -0.05,0 -0.1,0 -0.15,0.1 3.86,0.4 7.8,0.6 11.84,0.6 0.26,0 0.53,0 0.79,0 -0.02,0 -0.05,0 -0.07,0 -3.71,0 -7.34,-0.2 -10.89,-0.5 -0.51,-0.1 -1.01,-0.1 -1.52,-0.2"
         id="path744-4" />
    </clipPath>
    <radialGradient
       fx="0"
       fy="0"
       cx="0"
       cy="0"
       r="1"
       gradientUnits="userSpaceOnUse"
       gradientTransform="matrix(14990.8,0,0,-14985.9,14981.7,15005)"
       spreadMethod="pad"
       id="radialGradient754">
      <stop
         style="stop-opacity:1;stop-color:#98533b"
         offset="0"
         id="stop748" />
      <stop
         style="stop-opacity:1;stop-color:#95523b"
         offset="0.596774"
         id="stop750" />
      <stop
         style="stop-opacity:1;stop-color:#4b3b35"
         offset="1"
         id="stop752" />
    </radialGradient>
    <clipPath
       clipPathUnits="userSpaceOnUse"
       id="clipPath764">
      <path
         d="m 20664.2,2832.3 h -0.1 c -44.8,0 -89.9,0.6 -135.2,1.9 45.3,-1.3 90.4,-1.9 135.2,-1.9 131.1,0 260.2,5.3 388.2,15.1 -127.8,-9.8 -256.9,-15.1 -387.7,-15.1 -0.2,0 -0.3,0 -0.4,0 m 388.2,15.1 c 0.1,0 0.2,0 0.3,0 -0.1,0 -0.2,0 -0.3,0 m 569,560.4 c 177.1,31.7 349.9,76.1 519,139.7 1.7,0.6 3.3,1.2 4.9,1.8 102.4,38.4 210.4,76.6 304.5,132.1 v 0 c -95.6,-56.4 -205.6,-94.9 -309.4,-134 -169.1,-63.5 -341.9,-107.9 -519,-139.6 m 38.9,531.6 c -0.1,0 -0.2,0 -0.3,0 -119.8,0 -239.6,3.4 -359.3,9.8 -2,0.1 -4,0.2 -6,0.3 -2.4,0.2 -4.9,0.3 -7.3,0.4 -6.3,0.4 -12.7,0.7 -19.1,1.1 v 0 c 130.6,-7.5 261.3,-11.6 392.1,-11.6 79.9,0 159.8,1.5 239.6,4.6 -79.8,-3.1 -159.6,-4.6 -239.5,-4.6 0,0 -0.1,0 -0.2,0 m 240.3,4.7 c 1.3,0 2.6,0.1 3.9,0.1 -1.3,0 -2.6,-0.1 -3.9,-0.1 m -5537.3,175 c 2,5.7 3.9,11.3 5.8,17 -1.9,-5.7 -3.8,-11.4 -5.8,-17 m 8491.9,958.8 c -1,4.7 -1.9,9.6 -2.7,14.1 l -0.1,0.4 0.1,-0.4 c 0.8,-4.5 1.7,-9.4 2.7,-14.1 m -3636.4,88.7 c -1179.5,0 -2320.1,324.2 -3511.1,380.9 -409.3,24.6 -806,111.9 -1199.8,215 -39.8,347.6 -123.7,688.5 -258.2,1013.6 287,-36.4 575.4,-61.3 866,-71.8 v 0 c 2.6,-0.1 5.2,-0.2 7.9,-0.3 0.5,0 1.1,0 1.7,-0.1 3.9,-0.1 7.8,-0.2 11.7,-0.4 0.6,0 1.2,0 1.8,0 89.2,-3 178.2,-4.4 267.1,-4.4 h 0.1 v 0 0 c 0.2,0 0.3,0 0.4,0 382,0 762.4,26.7 1142.3,74.4 0.9,0.1 1.8,0.2 2.7,0.3 0.7,0.1 1.5,0.2 2.2,0.3 12.3,1.5 24.6,3.1 36.8,4.7 v 0 0 c 468.6,60.7 934.5,141.1 1403.6,198.3 19,2.3 38.1,4.6 57.2,6.8 235.4,27.7 480.5,46.6 726.2,46.7 0.1,0 0.1,0 0.2,0 0.1,0 0.2,0 0.4,0 594.7,-0.1 1193.7,-110.9 1670.1,-475.9 1.2,-1 2.4,-1.9 3.6,-2.8 4.1,-3.2 8.3,-6.4 12.4,-9.6 v 0 0 c 0.9,-0.8 1.8,-1.5 2.7,-2.2 0.1,0 0.2,-0.1 0.4,-0.2 31.3,-23.6 67.6,-37.9 103.5,-38 0.1,0 0.2,0 0.3,0 v 0 0 c 0.1,0 0.2,0 0.3,0 33.1,0.1 65.8,12.2 94,40.4 v 0 c 35.5,35.5 50.6,97.1 35.3,147.3 1.8,8.8 2.8,17.8 2.8,26.7 0,31.8 -12.7,63 -43,87.1 -203.6,162.3 -425.1,300.2 -658.9,414.8 -4.1,2 -8.2,4 -12.2,6.1 -111.8,55.3 -227.9,119.6 -345.3,158 v 0 0 c -59.2,19.4 -118.8,37.3 -178.9,53.7 -60,16.4 -120.4,31.4 -181.1,45.1 -464.2,104.6 -937.3,139.1 -1412,139.1 0,0 -0.1,0 -0.2,0 v 0 0 c -0.1,0 -0.2,0 -0.3,0 -463.2,0 -927.8,-32.9 -1386.8,-65.9 -3.3,-0.3 -6.6,-0.5 -9.9,-0.7 -2.5,-0.2 -5,-0.4 -7.5,-0.6 -5.6,-0.4 -11.2,-0.8 -16.7,-1.2 -1.8,-0.1 -3.5,-0.2 -5.3,-0.3 -1.7,-0.2 -3.3,-0.3 -5,-0.4 -2.9,-0.2 -6,-0.4 -8.9,-0.6 v 0 c -3.1,-0.3 -6.2,-0.5 -9.4,-0.7 -0.6,-0.1 -1.3,-0.1 -2,-0.2 -6.7,-0.5 -13.4,-0.9 -20.1,-1.4 -426.9,-31.1 -854.7,-68.6 -1282.9,-68.6 -0.1,0 -0.2,0 -0.4,0 0,0 0,0 -0.1,0 -80.4,0 -160.8,1.3 -241.2,4.3 -126.7,4.6 -253.3,13.1 -379.3,26.2 -32.6,3.4 -65.1,7.3 -97.6,11.2 -2.5,0.3 -5.8,0.5 -9.3,0.7 -9.4,1.4 -19,3.5 -28,4.8 -59.9,9.1 -119.5,19.4 -178.9,31 -176.9,34.7 -350.9,81.5 -520.8,140.6 -105.6,126.4 -215.4,249.6 -324.9,372.2 -172.8,193.7 -352.5,373 -558.9,531.2 -204.9,157 -433.6,271.5 -676.7,358 -243.2,86.5 -496.3,131.1 -751.6,163.6 v 0 c -1.6,0.2 -3.2,0.4 -4.8,0.7 -0.7,0 -1.4,0.1 -2.1,0.2 -95.6,12.3 -220.5,30 -343.7,30 -22,0 -43.9,-0.5 -65.6,-1.8 -37.9,-2.2 -75.2,-6.5 -110.9,-13.7 -106.4,83.6 -218.8,148.7 -335.4,218.8 -136.1,81.7 -275.8,150.4 -422.8,210.5 -139.3,56.8 -284.9,93.8 -429.8,133.2 -14.5,4 -29.1,7.9 -43.6,11.8 -86,76.2 -159.9,165.3 -246.8,240.9 -179.9,156.6 -350.1,322.5 -518.9,490.8 -300.1,299.4 -584.8,612.8 -841.12,950.7 -260.26,343.2 -474.88,707.9 -672.88,1089.9 -183.15,353.2 -345.64,706.3 -483.91,1070.8 -96.11,393.3 -149.52,797.2 -159.71,1201.9 9.54,-378.4 57.35,-755.9 142.02,-1124.9 476.57,377.7 916.59,764.3 1338.2,1170 61.3,-115.5 124.9,-229.7 187.4,-343.6 181.1,-329.6 361.5,-667.5 599.2,-956.8 312.1,-833.4 1261.4,-1964.2 2137.1,-2209.7 1303.4,-683.5 2969.9,-1217.5 3354.5,-2798 10.9,-56.1 23.7,-83.1 40.9,-83.1 12.2,0 26.8,13.7 44.6,40.3 91.1,193.6 12.7,617.2 -83.7,1032.1 2.2,1.9 4.3,3.9 6.3,6 0.7,0.7 1.4,1.4 2,2.1 v 0 c 0.1,-0.1 0.1,-0.2 0.2,-0.3 2.7,-3.8 6.8,-5.5 10.8,-5.5 0.1,0 0.1,0 0.1,0 v 0 0 c 0.1,0 0.2,0 0.2,0 8.2,0.1 16.1,6.8 12.8,16.4 v 0 c -2.3,6.8 -4.8,13.6 -7.2,20.4 1.8,6.5 2.8,13.4 2.8,20.8 v 0 c 0.1,4.6 -0.3,9.5 -1.2,14.5 -11.7,69.6 -25.8,138.7 -42.7,207.2 -4.2,16.8 -8.5,33.5 -13,50.2 v 0 c -0.3,0.9 -0.5,1.9 -0.8,2.8 -10.6,38.7 -25.2,77.6 -31.8,117 v 0 c -7,42 -7.9,82.5 -19,124.2 -30.2,114.4 -66.1,226.3 -112.1,334.3 v 0 c 192.3,-256.3 219.4,-835.7 1430,-1194.6 1254,-133.3 3617.3,-1216.7 4814,-1516.6 v 0 0 c -29.6,16.3 -110.9,111.1 -252,243.6 297.2,-265.3 552.7,-570.6 799.2,-883.1 -174,220.6 -352.7,437.6 -547.2,639.5 330.5,-678.9 833.8,-1499.8 356.6,-2135.8 -256.4,-341.7 -726.4,-341.7 -1153.7,-363.1 -155.1,-12.3 -309.5,-17.8 -463,-17.8 m -4683.6,101.2 c 0,0.1 0,0.2 0,0.3 0,-0.1 0,-0.2 0,-0.3 m 6507.9,1754.5 c -1.2,1.5 -2.4,3 -3.6,4.5 1.2,-1.5 2.4,-3 3.6,-4.5 m -5.4,6.8 c -0.6,0.8 -1.3,1.7 -2,2.5 0.7,-0.8 1.4,-1.7 2,-2.5 m -3.7,4.7 c -0.9,1.2 -1.8,2.3 -2.7,3.5 0.9,-1.2 1.8,-2.3 2.7,-3.5 m -3.7,4.7 c -1.3,1.6 -2.6,3.3 -3.9,5 1.3,-1.7 2.6,-3.3 3.9,-5 M 21098.1,8671 c -789.2,345.5 -1623.4,625.9 -2465.8,867.4 842.4,-241.5 1695.6,-481.4 2465.8,-867.4 m -4789.5,847.6 c -16.8,73.4 -36.2,146 -58.9,217.7 22.8,-71.7 42.1,-144.3 58.9,-217.7 m -117.9,350 c -1.9,2.8 -3.7,5.6 -5.5,8.4 -70.8,108.8 -155.8,202.9 -238.6,301.1 82.8,-98.2 167.8,-192.3 238.6,-301.1 1.8,-2.8 3.6,-5.6 5.5,-8.4 m -5111.8,3472.2 c -0.1,0.1 -0.2,0.2 -0.3,0.3 0.1,-0.1 0.2,-0.2 0.3,-0.3 m -2411.62,1417.4 c -0.04,1.4 -0.07,2.8 -0.11,4.3 0.04,-1.5 0.07,-2.9 0.11,-4.3 m -0.14,5.3 c -0.02,1.2 -0.05,2.3 -0.08,3.5 0.03,-1.2 0.06,-2.3 0.08,-3.5 m -0.12,5.5 c -0.02,0.8 -0.04,1.7 -0.06,2.5 0.02,-0.9 0.04,-1.7 0.06,-2.5 m 1225.16,579.4 c -0.03,0.1 -0.07,0.1 -0.1,0.2 0.03,-0.1 0.07,-0.1 0.1,-0.2 m -1.6,4.1 c -0.1,0.3 -0.2,0.6 -0.3,0.8 0.1,-0.2 0.2,-0.5 0.3,-0.8 m -1.63,4.3 c -0.11,0.3 -0.23,0.6 -0.35,0.9 0.12,-0.3 0.24,-0.6 0.35,-0.9 m -141.44,278.9 c 2.34,2 4.66,3.9 7,5.8 -2.34,-1.9 -4.66,-3.8 -7,-5.8 m 11.92,9.8 c 12.31,10.1 24.6,20.3 36.89,30.4 -12.29,-10.1 -24.58,-20.3 -36.89,-30.4"
         id="path762-5" />
    </clipPath>
    <radialGradient
       fx="0"
       fy="0"
       cx="0"
       cy="0"
       r="1"
       gradientUnits="userSpaceOnUse"
       gradientTransform="matrix(14990.8,0,0,-14985.9,14981.7,15005)"
       spreadMethod="pad"
       id="radialGradient772">
      <stop
         style="stop-opacity:1;stop-color:#9f4421"
         offset="0"
         id="stop766" />
      <stop
         style="stop-opacity:1;stop-color:#9c4321"
         offset="0.596774"
         id="stop768" />
      <stop
         style="stop-opacity:1;stop-color:#512c1c"
         offset="1"
         id="stop770" />
    </radialGradient>
    <clipPath
       clipPathUnits="userSpaceOnUse"
       id="clipPath962">
      <path
         d="m 15233.2,3838.4 c -144.9,0 -288.4,12.2 -431.2,42.5 -295.2,62.6 -579.9,170.6 -831.6,334.7 65.7,127.7 122.4,259.7 170,395 525.7,-117.2 1064.6,-183.6 1605.8,-232.4 -0.6,-2.7 -5.8,-42.2 -6.3,-44.9 -10.5,-67.5 -23.3,-134.7 -38.8,-201.3 -18.6,-80.1 -41,-159.3 -67.9,-237 l -0.1,-0.3 c -90.8,-34 -188.9,-50 -290.4,-54 -33.3,-1.4 -66.5,-2.1 -99.6,-2.3 -3.3,0 -6.6,0 -9.9,0"
         id="path960-2" />
    </clipPath>
    <radialGradient
       fx="0"
       fy="0"
       cx="0"
       cy="0"
       r="1"
       gradientUnits="userSpaceOnUse"
       gradientTransform="matrix(14990.8,0,0,-14985.9,14981.7,15005)"
       spreadMethod="pad"
       id="radialGradient970">
      <stop
         style="stop-opacity:1;stop-color:#84260e"
         offset="0"
         id="stop964" />
      <stop
         style="stop-opacity:1;stop-color:#80260e"
         offset="0.596774"
         id="stop966" />
      <stop
         style="stop-opacity:1;stop-color:#360e09"
         offset="1"
         id="stop968" />
    </radialGradient>
    <clipPath
       clipPathUnits="userSpaceOnUse"
       id="clipPath980">
      <path
         d="m 13366.8,4463 c -110.9,0 -230.9,14.7 -317.9,16.5 -170.1,3.5 -340,13.4 -509.4,28.4 -330.2,29.3 -658.5,78.5 -984.2,140.2 -660.6,125.2 -1310.2,300.6 -1962.31,462.7 -326.25,81.1 -653.36,159.2 -982.85,226.1 -324.18,65.9 -656.35,133.7 -988.62,133.7 -0.14,0 -0.31,0 -0.45,0 -0.09,0 -0.16,0 -0.25,0 -11.49,0 -22.98,-0.1 -34.48,-0.2 -300.69,-4.4 -606.63,-71.8 -857.74,-243.5 -97.07,-66.5 -186.58,-146.6 -261.13,-238.2 v 0 c -4.85,11.1 -9.82,22.2 -14.62,33.3 -3.19,7.4 -6.35,14.9 -9.53,22.3 -2.87,6.8 -7.53,18 -9.17,22 -12.43,30.6 -25.05,61.2 -37.3,91.9 -131.52,329.7 -233.36,672.5 -290.31,1023.1 -42.07,259 -57.7,522.8 -41.36,783.1 228.68,-479.8 647.72,-856.3 1172.4,-925.6 1944.32,-277.7 3888.62,-277.7 5704.72,-1046.6 260.8,-113.4 527.7,-205.5 798.9,-281.5 -42.3,-105.9 -100.7,-191.6 -183.4,-222.2 -52.5,-19.4 -119.9,-25.5 -191,-25.5 v 0"
         id="path978-4" />
    </clipPath>
    <radialGradient
       fx="0"
       fy="0"
       cx="0"
       cy="0"
       r="1"
       gradientUnits="userSpaceOnUse"
       gradientTransform="matrix(14990.8,0,0,-14985.9,14981.7,15005)"
       spreadMethod="pad"
       id="radialGradient988">
      <stop
         style="stop-opacity:1;stop-color:#84260e"
         offset="0"
         id="stop982" />
      <stop
         style="stop-opacity:1;stop-color:#80260e"
         offset="0.596774"
         id="stop984" />
      <stop
         style="stop-opacity:1;stop-color:#360e09"
         offset="1"
         id="stop986" />
    </radialGradient>
    <clipPath
       clipPathUnits="userSpaceOnUse"
       id="clipPath998">
      <path
         d="m 15591.3,6246.2 c -21.4,15.8 -42.6,32.1 -63.7,48.9 -484.2,387.2 -1005,676.9 -1562.3,924.3 -51.9,116.4 -107.9,230.6 -166.7,342.1 -172.4,326.6 -387.4,627.5 -618.7,914.9 v 0 c 42.9,-4.5 85.7,-9.2 128.6,-14.2 3.6,-0.4 17.1,-2.1 27.3,-3.3 1.9,-0.2 3.4,-0.4 4.3,-0.6 15.2,-2.3 30.4,-4.7 45.6,-7.1 461.6,-89.1 897.7,-301.8 1254.9,-602.2 106.8,-102.9 208.8,-211.1 309.9,-319.2 28.6,-30.5 57.1,-61 85.5,-91.6 0.2,-2.6 0.7,-5.5 1.4,-8.7 4.6,-51.6 20.5,-103 44.2,-143.5 38,-65 89.4,-102.5 151.5,-132.3 2,-1.2 4,-2.2 6,-3.2 28.4,-47.9 55.8,-97.5 82.4,-149.3 120.9,-234.8 205.5,-492.5 269.8,-755"
         id="path996-2" />
    </clipPath>
    <radialGradient
       fx="0"
       fy="0"
       cx="0"
       cy="0"
       r="1"
       gradientUnits="userSpaceOnUse"
       gradientTransform="matrix(14990.8,0,0,-14985.9,14981.7,15005)"
       spreadMethod="pad"
       id="radialGradient1006">
      <stop
         style="stop-opacity:1;stop-color:#9e4931"
         offset="0"
         id="stop1000" />
      <stop
         style="stop-opacity:1;stop-color:#9b4831"
         offset="0.596774"
         id="stop1002" />
      <stop
         style="stop-opacity:1;stop-color:#51312b"
         offset="1"
         id="stop1004" />
    </radialGradient>
    <clipPath
       clipPathUnits="userSpaceOnUse"
       id="clipPath1052">
      <path
         d="m 13948.5,2901.3 c -142.9,0 -285.9,7.1 -427.8,22.5 -166.7,18 -358.3,57.1 -532.9,105.9 -19.4,5.4 -38.7,11.1 -57.9,16.8 14.5,24.1 25,49.8 30.9,76.7 25.5,12.9 51,26.4 76.7,41.1 140.4,80.1 269,183.6 385.4,298.4 v 0 c 37.3,-1.1 74.7,-1.7 112,-1.7 351.6,0 703.5,49.3 1026.5,180 39.1,-8.8 78.4,-16.4 118.1,-23 36.5,-6.1 73.2,-11.2 110.3,-15.4 74.1,-8.3 149.5,-12.8 225.1,-12.8 0.1,0 0.3,0 0.4,0 1.4,0 2.7,0 4,0 176.9,0.3 354.2,25.6 517.9,85.3 v 0 c -56.3,-105.2 -119.9,-198.3 -176.8,-262.9 -215.4,-244.7 -474.5,-373.7 -789.8,-448 -46.6,-11 -93.5,-20.5 -140.7,-28.7 -19.6,-3.5 -39.3,-6.6 -59,-9.6 -7.2,-1 -18.4,-2.6 -20.1,-2.8 -86.6,-10.1 -173.5,-16.7 -260.6,-19.5 -39.9,-1.3 -79.8,-2 -119.8,-2.3 -7.3,0 -14.6,0 -21.9,0"
         id="path1050-3" />
    </clipPath>
    <radialGradient
       fx="0"
       fy="0"
       cx="0"
       cy="0"
       r="1"
       gradientUnits="userSpaceOnUse"
       gradientTransform="matrix(14990.8,0,0,-14985.9,14981.7,15005)"
       spreadMethod="pad"
       id="radialGradient1060">
      <stop
         style="stop-opacity:1;stop-color:#89432b"
         offset="0"
         id="stop1054" />
      <stop
         style="stop-opacity:1;stop-color:#86432b"
         offset="0.596774"
         id="stop1056" />
      <stop
         style="stop-opacity:1;stop-color:#3b2b26"
         offset="1"
         id="stop1058" />
    </radialGradient>
    <clipPath
       clipPathUnits="userSpaceOnUse"
       id="clipPath1216">
      <path
         d="m 10642,15379.4 v 0.1 l -0.7,1.7 c -2.6,6.5 -5.3,13 -8,19.5 -1,2.7 -1.7,4.5 -1.7,4.5 0.1,0 2.8,-6.6 10.4,-25.8"
         id="path1214-7" />
    </clipPath>
    <radialGradient
       fx="0"
       fy="0"
       cx="0"
       cy="0"
       r="1"
       gradientUnits="userSpaceOnUse"
       gradientTransform="matrix(14990.8,0,0,-14985.9,14981.7,15005)"
       spreadMethod="pad"
       id="radialGradient1224">
      <stop
         style="stop-opacity:1;stop-color:#6c260e"
         offset="0"
         id="stop1218" />
      <stop
         style="stop-opacity:1;stop-color:#69260e"
         offset="0.596774"
         id="stop1220" />
      <stop
         style="stop-opacity:1;stop-color:#1e0e09"
         offset="1"
         id="stop1222" />
    </radialGradient>
    <clipPath
       clipPathUnits="userSpaceOnUse"
       id="clipPath1326">
      <path
         d="m 8979.42,19474.7 c -1.53,0 -2.29,1.2 -2.29,2.4 0,1.2 0.76,2.4 2.29,2.4 1.52,0 2.29,-1.2 2.29,-2.4 0,-1.2 -0.77,-2.4 -2.29,-2.4"
         id="path1324-4" />
    </clipPath>
    <radialGradient
       fx="0"
       fy="0"
       cx="0"
       cy="0"
       r="1"
       gradientUnits="userSpaceOnUse"
       gradientTransform="matrix(14990.8,0,0,-14985.9,14981.7,15005)"
       spreadMethod="pad"
       id="radialGradient1334">
      <stop
         style="stop-opacity:1;stop-color:#6c260e"
         offset="0"
         id="stop1328" />
      <stop
         style="stop-opacity:1;stop-color:#69260e"
         offset="0.596774"
         id="stop1330" />
      <stop
         style="stop-opacity:1;stop-color:#1e0e09"
         offset="1"
         id="stop1332" />
    </radialGradient>
  </defs>
  <sodipodi:namedview
     id="namedview4"
     pagecolor="#ffffff"
     bordercolor="#000000"
     borderopacity="0.25"
     inkscape:showpageshadow="2"
     inkscape:pageopacity="0.0"
     inkscape:pagecheckerboard="0"
     inkscape:deskcolor="#d1d1d1"
     inkscape:zoom="0.24149903"
     inkscape:cx="2333.3427"
     inkscape:cy="1666.6734"
     inkscape:window-width="1906"
     inkscape:window-height="1001"
     inkscape:window-x="0"
     inkscape:window-y="0"
     inkscape:window-maximized="0"
     inkscape:current-layer="g8" />
  <g
     id="g8"
     inkscape:groupmode="layer"
     inkscape:label="ink_ext_XXXXXX"
     transform="matrix(1.3333333,0,0,-1.3333333,0,3333.3467)">
    <g
       id="g10"
       transform="matrix(0.1,0,0,0.1,1.5,0)">
      <path
         d="M 0,25000.1 H 35002.2 V 0.101563 H 0 V 25000.1 v 0"
         style="fill:#000000;fill-opacity:1;fill-rule:evenodd;stroke:none"
         id="path12" />
      <path
         d="m 16075.4,25000.1 v -7273.5 l -72.9,-1708.2 -75.3,-1026.5 -199,-361.2 -35.7,-859.5 -620.3,-73.3 -908.1,-73.1 -622.8,-97.9 -638.9,248.6 -228.7,236.2 -441.3,273.3 -498.8,137.2 -180.2,123.6 -372.1,54.2 -124.9,-24.6 -2259.22,1438.5 c -1006.2,518.9 -2024.72,982.4 -2115.83,994.3 -99.78,13 -811.49,-76.3 -1099.75,-42.4 l -1751.73,579.9 -176.38,61.4 -101.26,-40.5 -540.61,160 c -251.44,1342 -661.94,2061.3 -1214.8,3288.9 C 983.594,22372.4 585.313,23518.2 2.21094,25000.1 H 16075.4 v 0"
         style="fill:#212121;fill-opacity:1;fill-rule:evenodd;stroke:none"
         id="path14" />
      <path
         d="M 11.4375,0.101563 16075,0 l 241.5,10334.6 -7.7,136.4 15.7,131.8 -668,50.6 -800.2,-170.2 -1498.7,84.5 -564.6,-33.2 -687.5,356.6 -431.6,10.9 -46.9,-11.9 -571,-465.3 L 8796.89,8986.3 C 8013.1,8493.8 7871.45,8268.5 7780.35,8256.6 7680.57,8243.6 5869.6,8068.3 5581.34,8034.4 4544.47,7246.4 2336.14,4889.7 1697.78,4117 1049.11,4057.7 982.145,3906.5 940.969,3835.1 L 585.305,3973.8 C 548.141,3878.6 82.9961,3581.8 11.4375,3536.5 V 3174.1 C 36.668,2543.4 106.676,1510.1 133.738,1354.1 145.973,1283.5 71.0664,477.699 11.4375,63.3008 v -63.199237 0"
         style="fill:#2e2e2e;fill-opacity:1;fill-rule:evenodd;stroke:none"
         id="path16" />
      <path
         d="m 14.7695,4061.4 693.6605,86.5 115.625,-167.1 c 207.335,178.2 351.125,340.4 513.505,460.3 68.27,50.5 422.34,164.5 599.8,261.2 l 64.66,-85.7 1817.77,2011.2 1772.03,1433.9 2205.38,241.7 586.38,451.6 1064.92,668.8 1237.3,778.4 443.5,309.1 501.3,378.8 -10.4,31.2 488.6,-30.2 686.9,-356.6 552.2,63.4 1518.2,-66.6 780.4,170.3 680.1,-60.1 2.6,306.9 -113.2,525.1 -82.9,388.2 -22.7,917.4 -430.8,949.6 -1507,-145.9 -639.9,-93.7 -684.3,266.4 -241.3,255.4 -375.7,240 -507.8,142.6 -167.9,112.1 -363.4,53.1 -151.1,-8.2 -888.8,573.1 -1413.21,884.2 -669.52,312.2 -753.54,374.7 -614.56,259.6 c -267.34,-11.9 -938.42,-37.7 -1053.37,-57.1 l -1424.33,456.6 c -156.29,36.8 -462.05,123.4 -566.08,142.5 l -144.82,-31.2 c -226.72,102.6 -420.95,187.4 -471.48,197.5 -98.73,19.7 -1051.52,-572 -1339.55,-605.8 -1036.077,-788 -1172.717,-393 -1687.1705,-1536.2 0,-3819 0,-7633.9 0,-11459.2 v 0"
         style="fill:#292929;fill-opacity:1;fill-rule:evenodd;stroke:none"
         id="path18" />
      <path
         d="M 21.4336,24953 755.074,23137.4 1487.42,21383 l 79.6,-34 746.42,-1436.5 606.64,-1955.1 -136.99,-326.4 -1096.11,-509.3 -561.8,-412 L 438.426,16344 21.4336,15726 v 9227 0"
         style="fill:#242424;fill-opacity:1;fill-rule:evenodd;stroke:none"
         id="path20" />
      <path
         d="m 16075.4,25000.1 h 18927 v -10316 l -623.8,630.6 -96.5,-5.9 -306,-33.1 -3432.1,-389.4 -196.7,-345.5 -547.7,-458.6 -72.3,-438.1 -257.6,-205 -228.6,-285.4 -124.8,-24.6 -180.1,-235 -110,-177.8 -164.6,-96.2 -160.2,-267.5 -47,-126.7 3.3,-113.9 204.9,-249.8 -509.1,-112.3 -180.1,123.6 -371.9,54.2 -124.8,-24.6 -1235.2,786.9 -1434.4,-28.2 c -157.1,-17.4 -717.6,-9.3 -808.6,2.6 -99.8,13.1 -225.8,-24.6 -513.9,9.2 0,0 -76.5,-215.2 -85.4,-349 -1,-15 -0.4,-231.6 -27.6,-369.2 -43,-217.7 -100.9,-363.9 -100.9,-363.9 -99.9,-74.1 -464.5,-390.4 -810.2,-450 -322.6,-55.7 -659.8,-69.4 -1127.2,-86.7 -562.8,-20.9 -1243.6,61.9 -1755.1,46.1 -1025,-31.7 -1727.8,-16 -1728.1,-19.7 l -798.3,-133.5 -642.4,-208.1 -7.9,225.4 -199.4,1003.8 -17.3,861.5 -411.4,883.6 -45,916.8 215.2,341.6 142.1,2511.6 -3.5,120.1 -6.8,122.6 c 16.3,562.3 0,3510.8 0,7273.5 v 0"
         style="fill:#242424;fill-opacity:1;fill-rule:evenodd;stroke:none"
         id="path22" />
      <path
         d="M 35002.2,0.101563 H 16186.4 L 15980.8,3289.6 l 362.1,7047.8 -2.5,140.7 6.6,123.3 c 1595.3,1153 7220.2,-705 7073.9,1617.3 l 63.7,454.9 513.9,-9.2 c 41.3,-73.7 621.7,-28.8 808.6,-2.6 l 1540.7,-39.5 c 251,-159.9 783.9,-434.8 1069.6,-723.7 0,0 79.3,-3.2 216.1,3 14.7,0.7 230.8,-26 316.9,-43.1 15.2,-3.1 256.5,-96.8 256.5,-96.8 116.5,25.7 458.9,100.7 462.7,101 -28.8,37 -205.2,251.4 -205.2,251.4 -7,42.1 -6.2,108.6 -6.2,108.6 19.2,58.4 51.2,130.1 52.2,131.7 31.1,50.3 135.3,235.8 155.6,262.2 1.6,2 48.1,27 48.1,27 0,0 110.3,53.4 121.8,71.7 5.4,8.6 111.6,178.2 149.6,229.2 42.5,57.1 110.1,149.8 127.3,177.6 1.7,2.7 130,25.3 130,25.3 86.7,114.7 262.9,300.8 262.9,300.8 63.4,58.6 196.4,104.9 221.6,195.9 30.2,108.8 80.3,430.4 80.3,430.4 7.3,6 91.6,80.9 188,161 71.7,59.4 147.3,112.6 200.6,166.8 36.6,37.1 159.1,136.6 159.1,136.6 38.8,56.2 176.7,309.1 197.2,336.8 0,0 1519.9,159.5 2644.9,287.6 655.4,74.6 1182,148.3 1182,148.3 58.3,-80.2 623,-627.8 623,-627.8 V 14454.4 1470.6 c 0,-490.198 -0.1,-980.299 -0.2,-1470.498437 v 0"
         style="fill:#292929;fill-opacity:1;fill-rule:evenodd;stroke:none"
         id="path24" />
    </g>
  </g>
</svg>
